<svg width="34" height="39" viewBox="0 0 34 39" fill="none" xmlns="http://www.w3.org/2000/svg">
<g clip-path="url(#clip0)">
<path d="M11.6008 26.6567C9.56861 24.7441 8.3733 22.1143 8.3733 19.1259C8.3733 16.1374 9.56861 13.5077 11.4813 11.595C13.1548 9.92159 13.1548 7.29173 11.4813 5.61819C9.80772 3.94465 7.17799 3.94465 5.50445 5.61819C2.15737 9.08476 0.0057373 13.8663 0.0057373 19.1259C0.0057373 24.3855 2.15737 29.167 5.62394 32.6335C7.29748 34.3071 9.92735 34.3071 11.6008 32.6335C13.1548 30.96 13.1548 28.3301 11.6008 26.6567V26.6567Z" fill="#FAE501"/>
<path d="M11.6007 11.595C13.5134 9.56287 16.1431 8.36756 19.1316 8.36756C22.1201 8.36756 24.7498 9.56287 26.6624 11.4755C28.3359 13.1491 30.9657 13.1491 32.6393 11.4755C34.3128 9.80199 34.3128 7.17225 32.6393 5.49871C29.1727 2.15164 24.3912 0 19.1316 0C13.872 0 9.0905 2.15164 5.62393 5.6182C3.95039 7.29174 3.95039 9.92161 5.62393 11.595C7.29747 13.1491 9.92733 13.1491 11.6007 11.595Z" fill="#4FB5E1"/>
<path d="M26.6624 26.6565C24.7498 28.6885 22.1201 29.884 19.1316 29.884C16.1431 29.884 13.5134 28.6885 11.6007 26.7759C9.92733 25.1025 7.29747 25.1025 5.62393 26.7759C3.95039 28.4495 3.95039 31.0793 5.62393 32.7528C9.0905 36.0999 13.872 38.2515 19.1316 38.2515C24.3912 38.2515 29.1727 36.0999 32.6393 32.6333C34.3128 30.9598 34.3128 28.3299 32.6393 26.6565C30.9657 25.1025 28.3359 25.1025 26.6624 26.6565V26.6565Z" fill="#F05751"/>
<path d="M8.61237 12.7907C10.923 12.7907 12.7961 10.9175 12.7961 8.60687C12.7961 6.29624 10.923 4.4231 8.61237 4.4231C6.30173 4.4231 4.42859 6.29624 4.42859 8.60687C4.42859 10.9175 6.30173 12.7907 8.61237 12.7907Z" fill="#0681B6"/>
<path d="M8.61237 33.8287C10.923 33.8287 12.7961 31.9556 12.7961 29.645C12.7961 27.3343 10.923 25.4612 8.61237 25.4612C6.30173 25.4612 4.42859 27.3343 4.42859 29.645C4.42859 31.9556 6.30173 33.8287 8.61237 33.8287Z" fill="#CD4739"/>
</g>
<defs>
<clipPath id="clip0">
<rect width="34" height="38.3699" fill="white"/>
</clipPath>
</defs>
</svg>
