<svg width="377" height="377" viewBox="0 0 377 377" fill="none" xmlns="http://www.w3.org/2000/svg">
<path d="M188.5 367C287.083 367 367 287.083 367 188.5C367 89.9172 287.083 10 188.5 10C89.9172 10 10 89.9172 10 188.5C10 287.083 89.9172 367 188.5 367Z" stroke="#0A0F0D" stroke-width="18.3077"/>
<path fill-rule="evenodd" clip-rule="evenodd" d="M83.0814 106.846L79.6445 129.487C86.6625 134.115 94.3491 138.252 101.455 142.3C108.561 146.348 116.248 150.485 123.354 154.533L156.07 173.753C158.304 174.686 159.958 175.531 161.611 176.376C163.265 177.221 165.903 179.403 167.644 179.667C168.313 179.175 168.489 178.014 168.666 176.853C169.422 175.78 169.51 175.199 170.267 174.126C170.62 171.804 171.465 170.151 172.398 167.917L177.151 156.167C176.078 155.41 136.307 135.713 129.782 131.753L115.974 124.905C112.175 122.547 116.326 122.583 119.405 121.863L134.623 119.422C141.361 118.069 148.68 116.805 155.418 115.452C162.157 114.099 168.807 113.327 175.545 111.974L196.34 108.004L207.132 79.9477C205.971 79.7714 200.394 81.3004 199.725 81.7928C196.735 81.9327 194.236 82.7412 191.826 82.9692L129.757 96.7088C124.848 97.7453 119.359 98.6938 114.362 100.311L83.0814 106.846Z" fill="#0A0F0D"/>
<path fill-rule="evenodd" clip-rule="evenodd" d="M211.804 206.831C213.93 208.372 217.214 210.106 219.435 211.068C222.14 212.706 224.941 213.764 227.067 215.306C240.3 221.659 253.341 229.172 265.899 236.009L273.53 240.247C273.918 241.501 272.759 241.31 269.671 241.989L191.885 255.315C191.885 255.315 181.011 281.488 180.723 283.226C182.557 282.934 209.675 277.301 212.184 276.525C222.607 274.678 233.125 272.251 242.969 270.307C255.321 267.589 268.832 265.061 281.764 262.438C286.106 261.371 292.862 260.107 297.204 259.04L305.214 257.388L308.95 234.795L265.575 209.174C257.943 204.937 250.891 200.795 243.839 196.654C240.071 194.245 236.208 192.416 232.44 190.008C230.798 189.141 222.683 184.228 221.62 183.458L211.804 206.831Z" fill="#0A0F0D"/>
<path fill-rule="evenodd" clip-rule="evenodd" d="M131.588 273.901L152.512 279.748C153.393 278.775 154.749 276.106 155.788 274.567L164.646 258.143C171.74 243.664 181.005 227.963 188.665 213.643C196.482 198.757 204.866 184.029 212.684 169.143C216.434 162.265 221.067 154.415 224.818 147.537C228.727 140.094 232.636 132.651 237.11 125.366C238.466 122.697 248.679 103.603 248.837 103.037L228.478 97.3481C226.241 100.991 224.728 104.226 222.332 108.434C220.095 112.076 218.423 115.877 216.344 118.954C214.107 122.596 212.435 126.397 210.198 130.039C208.526 133.84 206.289 137.482 204.052 141.125C201.815 144.767 200.143 148.568 197.906 152.21C196.234 156.011 193.997 159.653 192.325 163.454C190.088 167.096 188.416 170.897 186.179 174.539L137.734 262.816C136.536 264.92 131.904 272.77 131.588 273.901Z" fill="#0A0F0D"/>
</svg>
